<svg width="900" height="500" viewBox="0 0 900 500" fill="none" xmlns="http://www.w3.org/2000/svg">
  <defs>
    <linearGradient id="bg" x1="96" y1="46" x2="782" y2="456" gradientUnits="userSpaceOnUse">
      <stop stop-color="#FFF9F1"/>
      <stop offset="1" stop-color="#FFE9D0"/>
    </linearGradient>
    <linearGradient id="dark" x1="0" y1="0" x2="0" y2="1">
      <stop stop-color="#3A3F46"/>
      <stop offset="1" stop-color="#111317"/>
    </linearGradient>
    <linearGradient id="screen" x1="0" y1="0" x2="1" y2="1">
      <stop stop-color="#FFFFFF"/>
      <stop offset="1" stop-color="#F4F7FA"/>
    </linearGradient>
    <linearGradient id="orange" x1="0" y1="0" x2="1" y2="1">
      <stop stop-color="#FF8A1F"/>
      <stop offset="1" stop-color="#F05A0A"/>
    </linearGradient>
    <filter id="shadow" x="-30%" y="-30%" width="160%" height="170%">
      <feDropShadow dx="0" dy="18" stdDeviation="18" flood-color="#0F172A" flood-opacity="0.26"/>
    </filter>
    <filter id="soft" x="-30%" y="-30%" width="160%" height="160%">
      <feGaussianBlur stdDeviation="14"/>
    </filter>
  </defs>

  <path d="M116 125C159 72 242 78 300 100C357 122 397 72 475 82C553 92 572 135 642 120C712 105 781 141 790 211C800 285 752 325 717 373C682 421 601 430 532 418C464 406 421 449 341 433C261 417 242 376 179 366C116 356 81 320 86 256C91 193 79 171 116 125Z" fill="url(#bg)"/>
  <ellipse cx="447" cy="413" rx="313" ry="38" fill="#F3CDA7" opacity="0.42" filter="url(#soft)"/>

  <g filter="url(#shadow)">
    <rect x="302" y="292" width="322" height="112" rx="18" fill="url(#dark)"/>
    <rect x="326" y="315" width="274" height="18" rx="9" fill="#535A64" opacity="0.48"/>
    <rect x="355" y="349" width="94" height="9" rx="4.5" fill="#0B0D10"/>
    <circle cx="522" cy="354" r="10" fill="#D8DEE7"/>
    <circle cx="522" cy="354" r="4" fill="#1B1F24"/>
    <rect x="546" y="349" width="43" height="9" rx="4.5" fill="#0B0D10"/>
  </g>

  <g filter="url(#shadow)">
    <rect x="351" y="93" width="245" height="208" rx="20" fill="#2E3339"/>
    <rect x="366" y="108" width="215" height="169" rx="8" fill="url(#screen)"/>
    <circle cx="474" cy="288" r="5" fill="#777F89"/>
    <rect x="430" y="300" width="90" height="27" rx="5" fill="#252A30"/>
    <rect x="407" y="322" width="137" height="16" rx="7" fill="#171A1F"/>

    <rect x="438" y="152" width="72" height="72" rx="18" fill="url(#orange)"/>
    <text x="474" y="198" text-anchor="middle" font-family="Arial, sans-serif" font-size="29" font-weight="700" fill="white">SS</text>
    <text x="474" y="245" text-anchor="middle" font-family="Arial, sans-serif" font-size="17" font-weight="800" letter-spacing="2" fill="#111827">SADUAKSABUY</text>
    <text x="474" y="262" text-anchor="middle" font-family="Arial, sans-serif" font-size="8" font-weight="700" letter-spacing="3" fill="#6B7280">HYPERLOCAL MARKET</text>
  </g>

  <g filter="url(#shadow)">
    <rect x="119" y="280" width="178" height="132" rx="22" fill="url(#dark)"/>
    <rect x="138" y="300" width="140" height="26" rx="7" fill="#555C65" opacity="0.55"/>
    <rect x="145" y="352" width="126" height="30" rx="7" fill="#0D0F12"/>
    <path d="M157 203H256L269 302H144L157 203Z" fill="#FFFFFF" stroke="#E5E7EB" stroke-width="3"/>
    <path d="M178 227H239" stroke="#D6DCE3" stroke-width="5" stroke-linecap="round"/>
    <path d="M172 246H243" stroke="#D6DCE3" stroke-width="5" stroke-linecap="round"/>
    <path d="M180 265H235" stroke="#D6DCE3" stroke-width="5" stroke-linecap="round"/>
    <path d="M170 284H244" stroke="#D6DCE3" stroke-width="5" stroke-linecap="round"/>
  </g>

  <g filter="url(#shadow)">
    <path d="M707 195C737 186 768 203 774 233L792 323C798 353 779 381 750 386C720 391 692 372 688 342L676 250C673 225 684 202 707 195Z" fill="url(#dark)"/>
    <rect x="699" y="214" width="49" height="37" rx="10" transform="rotate(-9 699 214)" fill="#4A5563" stroke="#6B7280"/>
    <rect x="728" y="306" width="17" height="48" rx="8" transform="rotate(-9 728 306)" fill="#39414C"/>
    <ellipse cx="741" cy="395" rx="48" ry="14" fill="#1B1E23"/>
    <rect x="719" y="359" width="44" height="39" rx="14" fill="#262B31"/>
  </g>
</svg>
